<svg id="Layer_1" enable-background="new 0 0 256 256" height="512" viewBox="0 0 256 256" width="512" xmlns="http://www.w3.org/2000/svg"><g><path d="m175.751 234.454v12.13c0 2.761-2.239 5-5 5h-85.5c-2.761 0-5-2.239-5-5v-12.13c1.4.09 2.81.14 4.23.14h87.04c1.42 0 2.83-.05 4.23-.14z" fill="#878787"/><path d="m180.984 51.083c.821 7.446 7.691 10.864 16.16 7.995 6.301 5.932 14.873 7.125 19.399 2.599s3.333-13.098-2.599-19.399c2.889-8.529-.606-15.345-7.995-16.16 1.075-5.164.196-9.897-2.901-12.995-6.254-6.254-19.172-3.476-28.853 6.205s-12.459 22.599-6.205 28.853c3.097 3.099 7.83 3.978 12.994 2.902z" fill="#13bf6d"/><path d="m79.693 107.256c7.97-.879 11.629-8.232 8.558-17.297 6.35-6.745 7.627-15.92 2.782-20.764-4.845-4.845-14.019-3.568-20.764 2.782-9.129-3.093-16.425.648-17.297 8.558-5.528-1.151-10.594-.21-13.91 3.105-6.694 6.694-3.721 20.521 6.642 30.884s24.19 13.336 30.884 6.642c3.315-3.316 4.256-8.382 3.105-13.91z" fill="#13bf6d"/><path d="m69.265 34.579c5.525 5.525 14.482 5.525 20.007 0l-20.007-20.007c-5.525 5.525-5.525 14.482 0 20.007z" fill="#fc5d3d"/><ellipse cx="118.883" cy="84.574" fill="#13bf6d" rx="6.039" ry="6.039" transform="matrix(.973 -.23 .23 .973 -16.251 29.576)"/><ellipse cx="155.136" cy="70.449" fill="#fc5d3d" rx="6.039" ry="6.039" transform="matrix(.973 -.23 .23 .973 -12.036 37.528)"/><path d="m113.533 9.231c-6.981 6.981-5.731 19.564-.332 24.963 4.285 4.285 10.121 2.957 15.839-1.276 2.897-2.131 6.047-5.28 8.18-8.18 4.233-5.718 5.562-11.553 1.276-15.839-5.4-5.399-17.982-6.649-24.963.332z" fill="#f0ab20"/><path d="m147.001 42.699c-3.022 3.022-8.004 2.742-10.668-.612l-7.294-9.17c2.897-2.131 6.047-5.28 8.18-8.18l9.17 7.294c3.354 2.664 3.634 7.646.612 10.668z" fill="#f2e1d6"/><path d="m205.877 75.311c11.354 11.354 11.341 29.758 0 41.099-11.354 11.354-29.745 11.354-41.099 0l8.57-8.57 23.959-23.959z" fill="#fff"/><path d="m197.307 83.881c6.619 6.619 6.611 17.348 0 23.959-6.619 6.619-17.34 6.619-23.959 0z" fill="#f0c020"/><path d="m197.307 83.881c6.619 6.619 6.611 17.348 0 23.959-6.619 6.619-17.34 6.619-23.959 0z" fill="#f0c020"/><path d="m224.711 170.774h-190c0-13.61 8.79-26.74 24.65-26.74 8.87 0 16.62 4.69 20.96 11.72 4-6.43 11.6-9.84 19.29-8.15-3.37-13.66 7.02-26.44 20.68-26.44 10.39 0 19.03 7.44 20.92 17.27 9.68-4.69 21.15.01 24.87 9.97 6.13-7.25 17.81-5.14 21.02 3.8 15-12.09 37.61-.9 37.61 18.57z" fill="#f2e1d6"/><path d="m230.111 170.774h-5.4-190-8.82c-2.92 0-5.24 2.5-4.99 5.41 2.62 31.33 27.87 56.21 59.35 58.27 1.4.09 2.81.14 4.23.14h87.04c1.42 0 2.83-.05 4.23-.14 31.389-2.048 56.711-26.852 59.35-58.26.25-2.91-2.06-5.42-4.99-5.42z" fill="#72c1e8"/><path d="m171.521 225.094h-70.697c-1.381 0-2.5-1.119-2.5-2.5s1.119-2.5 2.5-2.5h70.697c22.941 0 42.671-15.584 47.979-37.898.319-1.342 1.668-2.176 3.011-1.854 1.344.319 2.174 1.667 1.854 3.011-5.847 24.576-27.578 41.741-52.844 41.741zm-80.697 0h-6.344c-1.381 0-2.5-1.119-2.5-2.5s1.119-2.5 2.5-2.5h6.343c1.381 0 2.5 1.119 2.5 2.5s-1.118 2.5-2.499 2.5z" fill="#c5e5ff"/><path d="m216.743 41.668c2.32-8.563-1.183-15.465-7.961-17.515.528-5.193-.845-9.674-3.967-12.797-7.341-7.34-21.569-4.615-32.389 6.206-10.821 10.82-13.547 25.047-6.205 32.388 3.122 3.123 7.605 4.494 12.796 3.967 2.059 6.813 8.99 10.271 17.517 7.96 7.217 6.03 16.561 6.786 21.776 1.568 5.217-5.216 4.463-14.557-1.567-21.777zm-1.968 18.242c-3.503 3.504-10.643 2.314-15.917-2.652-.678-.637-1.646-.843-2.516-.547-6.201 2.101-12.169.496-12.873-5.901-.165-1.482-1.572-2.474-2.995-2.173-4.53.942-8.341.156-10.718-2.222-4.818-4.818-2.689-15.182 4.505-23.482l4.776 4.776-.355 15.107c-.033 1.4 1.091 2.559 2.5 2.559 1.354 0 2.467-1.081 2.498-2.441l.243-10.338 10.947 10.944-.122 8.189c-.021 1.394 1.104 2.537 2.501 2.537 1.363 0 2.479-1.095 2.499-2.463l.05-3.336 8.152 8.152c.977.977 2.559.977 3.535 0 .977-.976.977-2.559 0-3.535l-8.153-8.153 3.808-.057c1.381-.021 2.483-1.156 2.463-2.537-.022-1.449-1.259-2.512-2.537-2.462l-8.661.129-10.945-10.945 10.581-.249c1.381-.033 2.474-1.178 2.44-2.558-.031-1.38-1.172-2.458-2.558-2.441l-15.351.361-4.776-4.776c8.3-7.194 18.665-9.324 23.483-4.505 2.377 2.377 3.165 6.183 2.222 10.718-.302 1.45.714 2.834 2.173 2.995 6.162.68 8.108 6.361 5.901 12.873-.296.875-.086 1.843.548 2.516 4.966 5.274 6.155 12.414 2.652 15.917z"/><path d="m78.355 122.934c3.333-3.332 4.781-8.132 4.18-13.699 7.358-2.142 11.015-9.58 8.518-18.664 6.45-7.667 7.283-17.608 1.748-23.143s-15.475-4.703-23.144 1.748c-9.155-2.519-16.538 1.225-18.664 8.518-5.565-.6-10.368.848-13.699 4.18-7.788 7.788-4.871 22.907 6.642 34.419 11.509 11.508 26.629 14.431 34.419 6.641zm-37.525-37.526c2.98-2.981 7.523-3.282 11.632-2.425 1.444.299 2.833-.708 2.995-2.174.763-6.921 7.2-8.772 14.01-6.464.876.296 1.843.085 2.516-.547 5.715-5.379 13.467-6.65 17.283-2.835 3.816 3.816 2.544 11.569-2.835 17.283-.633.673-.844 1.641-.547 2.516 2.281 6.734.511 13.24-6.464 14.01-1.466.162-2.474 1.552-2.174 2.995 1.023 4.914.162 9.045-2.425 11.632-5.249 5.249-16.543 2.926-25.521-4.934l5.302-5.302c.06.001 16.245.383 16.305.383 1.354 0 2.466-1.081 2.499-2.441.032-1.38-1.061-2.525-2.441-2.558l-11.476-.27 12.059-12.059c.009 0 8.87.132 8.878.132 1.363 0 2.479-1.095 2.499-2.463.021-1.38-1.082-2.516-2.462-2.537l-3.987-.059 9.021-9.021c.977-.976.977-2.559 0-3.535-.976-.977-2.56-.977-3.535 0l-9.021 9.021-.067-4.492c-.02-1.368-1.135-2.463-2.499-2.463-.013 0-.025 0-.038 0-1.381.021-2.483 1.156-2.462 2.537l.139 9.345-12.061 12.057-.276-11.736c-.033-1.38-1.189-2.461-2.558-2.441-1.38.033-2.473 1.178-2.441 2.558l.388 16.506-5.302 5.302c-7.859-8.977-10.183-20.272-4.934-25.521z"/><path d="m67.498 12.804c-6.506 6.505-6.507 17.036 0 23.542 6.49 6.49 17.05 6.491 23.542 0 .978-.979.975-2.562 0-3.536l-20.007-20.005c-.976-.977-2.56-.976-3.535-.001zm3.535 20.008c-3.994-3.995-4.432-10.074-1.579-14.515l16.091 16.091c-4.505 2.883-10.578 2.357-14.512-1.576z"/><path d="m110.344 84.574c0 4.708 3.831 8.539 8.539 8.539s8.539-3.831 8.539-8.539-3.831-8.539-8.539-8.539-8.539 3.831-8.539 8.539zm12.077 0c0 1.951-1.587 3.539-3.539 3.539s-3.539-1.587-3.539-3.539 1.587-3.539 3.539-3.539 3.539 1.588 3.539 3.539z"/><path d="m163.675 70.449c0-4.708-3.831-8.539-8.539-8.539s-8.538 3.831-8.538 8.539 3.83 8.539 8.538 8.539 8.539-3.831 8.539-8.539zm-12.077 0c0-1.951 1.587-3.539 3.538-3.539s3.539 1.587 3.539 3.539-1.588 3.539-3.539 3.539-3.538-1.588-3.538-3.539z"/><path d="m134.375 43.642c3.59 4.52 10.314 4.905 14.394.826 4.078-4.079 3.69-10.807-.823-14.392l-7.352-5.848c5.594-8.893 2.289-14.475-.331-17.096-6.332-6.333-20.491-7.676-28.498.332-7.985 7.985-6.711 22.119-.332 28.498 4.912 4.914 11.234 4.007 17.091.325zm10.858-2.71c-1.965 1.963-5.199 1.795-6.944-.401l-5.737-7.214c1.702-1.451 3.542-3.277 5.066-5.067l7.216 5.74c2.19 1.74 2.366 4.974.399 6.942zm-30.265-8.506c-4.649-4.649-5.425-15.67.332-21.428 5.729-5.728 16.718-5.04 21.427-.332 2.973 2.974 2.463 7.207-1.522 12.589-1.972 2.681-4.975 5.682-7.653 7.652-5.376 3.981-9.61 4.492-12.584 1.519z"/><path d="m120.913 21.479-.904-.182c-1.358-.271-2.672.605-2.944 1.958-.272 1.354.605 2.671 1.958 2.944l.904.182c1.366.272 2.674-.615 2.944-1.958.272-1.353-.605-2.671-1.958-2.944z"/><path d="m128.725 18.569c1.354-.272 2.23-1.59 1.958-2.944l-.182-.904c-.272-1.354-1.584-2.229-2.944-1.958-1.354.272-2.23 1.59-1.958 2.944l.182.904c.271 1.345 1.579 2.23 2.944 1.958z"/><path d="m149.878 102.873 1.974-1.974c.977-.976.977-2.559 0-3.535-.977-.977-2.559-.977-3.535 0l-1.974 1.974c-.977.976-.977 2.559 0 3.535.976.976 2.558.976 3.535 0z"/><path d="m52.246 52.848 1.974 1.974c.976.977 2.56.977 3.535 0 .977-.976.977-2.559 0-3.535l-1.974-1.974c-.976-.977-2.56-.977-3.535 0-.976.976-.976 2.559 0 3.535z"/><path d="m216.8 98.22c.615-9.754-2.817-18.346-9.16-24.68-.939-.94-2.58-.94-3.53 0l-41.1 41.1c-.974.975-.975 2.566 0 3.54 11.74 11.74 31.549 13.115 45.13-.51.96-1 .92-2.59-.08-3.54-.96-.92-2.609-.88-3.529.08-9.353 9.97-25.341 11.083-36.131 2.12l5.078-5.079c7.75 5.973 18.71 5.243 25.597-1.643 6.974-6.973 7.574-17.932 1.641-25.602l5.075-5.076c4.23 5.091 6.545 11.843 6.02 18.91-.102 1.373.919 2.576 2.311 2.68 1.398.1 2.578-.94 2.678-2.3zm-19.645-10.652c3.92 5.569 3.474 13.415-1.616 18.503-5.027 5.028-12.867 5.566-18.5 1.617 17.364-17.369 13.218-13.222 20.116-20.12z"/><path d="m212.899 105.4c-1.229-.55-2.76.04-3.3 1.26-.57 1.31.034 2.757 1.26 3.3 1.243.564 2.746.009 3.311-1.26.524-1.185.059-2.712-1.271-3.3z"/><path d="m24.06 198.14c.55 1.21 2.08 1.8 3.31 1.24 1.25-.57 1.81-2.05 1.24-3.31-4.998-11.021-4.902-19.13-5.23-20.13 0-1.682 1.204-2.661 2.51-2.67h204.22c1.671.012 2.702 1.591 2.5 2.72-2.65 31.478-29.044 56.1-61.09 56.1h-87.04c-17.477 0-33.722-7.287-45.34-20.04-.89-.98-2.55-1.05-3.53-.16-1.02.93-1.09 2.51-.17 3.53.01 0 .01.01.01.01 10.634 11.666 25.418 19.608 42.301 21.31v9.845c0 4.136 3.364 7.5 7.5 7.5h85.5c4.136 0 7.5-3.364 7.5-7.5v-9.841c31.656-3.207 56.683-28.586 59.339-60.333.387-4.35-3.08-8.129-7.48-8.14h-3.016c-1.751-19.002-23.211-29.735-39.044-19.81-4.442-7.121-14.201-9.175-21.17-4.18-4.822-8.205-14.787-12.132-23.96-9.21-3.097-9.451-11.944-16.389-22.63-16.41-2.55 0-5.06.4-7.46 1.19-1.31.44-2.02 1.85-1.59 3.16.42 1.28 1.86 2.02 3.15 1.59 1.9-.62 3.88-.94 5.91-.94 8.99 0 16.76 6.41 18.46 15.25.298 1.6 2.071 2.494 3.54 1.77 8.636-4.158 18.349.322 21.44 8.6.67 1.797 3.016 2.19 4.25.74 4.935-5.82 14.207-4.052 16.76 3.03.551 1.556 2.524 2.208 3.92 1.1 12.786-10.279 31.599-1.625 33.385 14.12h-184.73c1.042-11.867 8.996-21.701 22.035-21.74 7.71 0 14.75 3.94 18.83 10.54.974 1.568 3.268 1.58 4.25 0 3.569-5.719 10.167-8.462 16.63-7.02 1.779.386 3.41-1.213 2.97-3.04-.833-3.352-.78-6.877.34-10.35.438-1.335-.312-2.74-1.6-3.15-1.29-.43-2.73.32-3.15 1.6-1.028 3.15-1.35 6.32-1.05 9.58-6.564-.224-12.285 2.463-16.2 6.84-5.18-6.35-12.84-10-21.02-10h-.07c-15.472 0-25.905 11.882-26.985 26.74h-6.415c-4.444.01-7.889 3.857-7.48 8.15 0-.001.447 10.226 5.65 21.719zm149.191 48.444c0 1.378-1.121 2.5-2.5 2.5h-85.5c-1.378 0-2.5-1.122-2.5-2.5v-9.513c.585.016 1.163.023 1.73.023h87.04c.567 0 1.145-.008 1.73-.023z"/><path d="m29.79 203.76c-1.159.766-1.479 2.306-.71 3.47.761 1.156 2.32 1.46 3.46.71 1.15-.76 1.47-2.31.71-3.46-.73-1.12-2.34-1.45-3.46-.72z"/><path d="m106.95 125.67c-.95-.95-2.6-.94-3.54 0-.97.98-.97 2.57.01 3.54.956.956 2.535.995 3.54-.01.97-.97.96-2.56-.01-3.53z"/><path d="m121.383 141.75v-2.003c0-1.381-1.119-2.5-2.5-2.5s-2.5 1.119-2.5 2.5v2.003c0 1.381 1.119 2.5 2.5 2.5s2.5-1.119 2.5-2.5z"/><path d="m150.587 151.344c.977-.976.977-2.559 0-3.535l-1.417-1.417c-.977-.977-2.559-.977-3.535 0-.977.976-.977 2.559 0 3.535l1.417 1.417c.976.977 2.558.977 3.535 0z"/><path d="m109.777 156.326 1.417-1.417c.976-.977.976-2.56 0-3.536-.977-.976-2.559-.976-3.536 0l-1.417 1.417c-.976.977-.976 2.56 0 3.536.978.976 2.56.976 3.536 0z"/><path d="m56.899 152.566c-.976.977-.976 2.56 0 3.536l1.417 1.417c.977.976 2.559.976 3.536 0 .976-.977.976-2.56 0-3.536l-1.417-1.417c-.977-.976-2.56-.976-3.536 0z"/><path d="m159.261 157.519 1.417-1.417c.977-.976.977-2.559.001-3.536-.977-.977-2.56-.976-3.536 0l-1.417 1.417c-.977.976-.977 2.559-.001 3.536.976.976 2.559.976 3.536 0z"/><path d="m206.16 161.959 1.417-1.417c.977-.976.977-2.559 0-3.535-.977-.977-2.559-.977-3.535 0l-1.417 1.417c-.977.976-.977 2.559 0 3.535.977.977 2.559.977 3.535 0z"/></g></svg>